<?xml version="1.0" encoding="utf-8"?>
<!-- Generator: Adobe Illustrator 21.1.0, SVG Export Plug-In . SVG Version: 6.00 Build 0)  -->
<svg version="1.1" id="Laag_1" xmlns="http://www.w3.org/2000/svg" xmlns:xlink="http://www.w3.org/1999/xlink" x="0px" y="0px"
	 width="738.7px" height="770.5px" viewBox="0 0 738.7 770.5" style="enable-background:new 0 0 738.7 770.5;" xml:space="preserve"
	>
<style type="text/css">
	.st0{clip-path:url(#SVGID_2_);}
	.st1{fill:#FFFFFF;}
	.st2{clip-path:url(#SVGID_4_);}
	.st3{enable-background:new    ;}
	.st4{clip-path:url(#SVGID_6_);}
	.st5{clip-path:url(#SVGID_8_);}
	.st6{clip-path:url(#SVGID_10_);}
	.st7{clip-path:url(#SVGID_12_);}
</style>
<g>
	<g>
		<g>
			<g>
				<defs>
					<rect id="SVGID_1_" x="-227.8" y="-187.4" width="1190.6" height="1190.6"/>
				</defs>
				<clipPath id="SVGID_2_">
					<use xlink:href="#SVGID_1_"  style="overflow:visible;"/>
				</clipPath>
				<g class="st0">
					<path class="st1" d="M222.7,594.9c-0.7,0-1.5-0.1-2.2-0.3c-4.1-1.2-6.5-5.6-5.2-9.7l91.4-305.8c-5.6-2.2-12.7-6.5-18.2-15
						c-14.4-22.5-10-62,13.2-117.2c1.7-4,6.2-5.8,10.2-4.2c4,1.7,5.8,6.2,4.2,10.2c-11.9,28.3-29.5,79.3-14.4,102.8
						c6,9.4,15,10,15.1,10c2.4,0.1,4.7,1.3,6.1,3.2c1.4,2,1.8,4.5,1.1,6.8l-93.7,313.6C229.2,592.7,226.1,594.9,222.7,594.9z"/>
				</g>
			</g>
		</g>
	</g>
	<g>
		<g>
			<g>
				<defs>
					<rect id="SVGID_3_" x="-227.8" y="-187.4" width="1190.6" height="1190.6"/>
				</defs>
				<clipPath id="SVGID_4_">
					<use xlink:href="#SVGID_3_"  style="overflow:visible;"/>
				</clipPath>
				<g class="st2">
					<path class="st1" d="M537.1,594.9c-0.4,0-0.8,0-1.1-0.1c-1-0.1-24.9-3.9-47.7-29.7c-13-14.7-23.1-33.7-30-56.5
						c-7.8-26-11.5-56.9-10.9-92.2H327.8c-4.3,0-7.8-3.5-7.8-7.8s3.5-7.8,7.8-7.8h127.6c2.1,0,4.1,0.9,5.6,2.4s2.3,3.6,2.2,5.7
						c-1.6,45.3,3.4,107.2,35.9,145c8.8,10.2,18.2,16.8,25.9,20.7c-43.6-139.4-119.3-380.8-126.6-401.5c-0.3,0.9-0.6,1.8-0.8,2.9
						c-14.9,61-34.6,96.6-58.6,105.8c-12.3,4.7-22.7,1-27-1.9c-2.7-1.9-4-5.3-3.1-8.5l30.9-112.7c1.1-4.2,5.4-6.6,9.6-5.5
						c4.2,1.1,6.6,5.4,5.5,9.6l-29,105.6c2.1,0.2,4.9-0.1,8-1.4c10.6-4.3,30.9-22.4,48.6-94.7c2.9-12.1,8.2-18.8,15.2-19.3
						c6.3-0.4,11.3,4.1,14.9,13.4c6,15.6,126.8,401.9,132,418.3c0.8,2.6,0.2,5.4-1.5,7.4C541.5,593.9,539.4,594.9,537.1,594.9z"/>
				</g>
			</g>
		</g>
	</g>
</g>
<g class="st3">
	<path class="st1" d="M112.7,86.6l6.1-4.4L130,97.7l14.5-10.4l-11.1-15.5l6.1-4.4l26.5,36.9l-6.1,4.4l-11.3-15.7l-14.5,10.4
		l11.3,15.7l-6.1,4.4L112.7,86.6z"/>
</g>
<g class="st3">
	<path class="st1" d="M154.2,58.2l25-13.9l3.3,6L164,60.6l6,10.8l16.4-9.1l3.3,6l-16.4,9.1l6.2,11.1l18.8-10.4l3.3,6L176.3,98
		L154.2,58.2z"/>
</g>
<g class="st3">
	<path class="st1" d="M204.3,40.6l-11,4.7l-2.7-6.5l28.9-12.3l2.7,6.5l-11,4.7l15,35.4l-6.9,2.9L204.3,40.6z"/>
</g>
<g class="st3">
</g>
<g class="st3">
	<path class="st1" d="M260.3,54.3l3.1-6.6c4,2.2,8.2,3.5,12.9,2.4c4.2-1,6.4-4,5.5-7.3l0-0.1c-0.7-2.8-2.6-4.2-10.2-5.1
		c-9.2-1.1-14.3-3.1-16-10.1l0-0.1c-1.8-7.2,2.7-13.8,10.9-15.8c5.1-1.3,10.2-0.8,15.1,1.7l-2.8,6.6c-3.6-1.7-7.4-2.6-10.9-1.7
		c-4,1-5.9,3.8-5.2,6.7l0,0.1c0.8,3.1,2.8,4.3,11,5.4c9,1.1,13.6,3.6,15.2,10l0,0.1c1.9,7.8-2.9,14.2-11.2,16.3
		C272.2,58.1,266.2,57.6,260.3,54.3z"/>
</g>
<g class="st3">
	<path class="st1" d="M304.6,11.7l-11.8,1.7l-1-6.9L322.9,2l1,6.9l-11.8,1.7l5.4,38.1l-7.5,1.1L304.6,11.7z"/>
</g>
<g class="st3">
	<path class="st1" d="M337.3,0.8l16.4-0.5c5.2-0.2,9.5,1.3,12.3,3.9c2.5,2.3,3.9,5.7,4.1,9.9l0,0.3c0.2,7-3.6,11.5-9,13.6l11.2,17.3
		l-8.7,0.3l-10.1-15.8c-0.1,0.1-0.3,0.1-0.5,0.1l-7.3,0.2l0.5,16l-7.5,0.2L337.3,0.8z M353.7,23c5.8-0.2,9-3.4,8.9-8.1l0-0.1
		c-0.2-5.1-3.5-7.7-9.2-7.5l-8.2,0.2l0.5,15.8L353.7,23z"/>
</g>
<g class="st3">
	<path class="st1" d="M398.8,1.3l7.2,0.7l12.4,47.1l-7.8-0.7l-2.8-11l-17.6-1.6L385.5,46l-7.6-0.7L398.8,1.3z M406.1,30.4l-4.8-18.8
		l-8.2,17.6L406.1,30.4z"/>
</g>
<g class="st3">
	<path class="st1" d="M436.7,6.3l7.4,1.6l-4.8,21.8l22-18l8.9,2l-19.7,15.7l10.6,28.9l-8.8-1.9l-8.2-22.2l-7,5.4l-2.8,12.8l-7.4-1.6
		L436.7,6.3z"/>
</g>
<g class="st3">
</g>
<g class="st3">
	<path class="st1" d="M504.4,24.8l13.5,5.5c9.2,3.7,13,11.5,9.5,20.2l0,0.1c-3.8,9.3-12.6,11.4-21.4,8l-6.1-2.5l-5.5,13.7l-7-2.8
		L504.4,24.8z M508.5,52.2c5.4,2.2,9.8,0.3,11.7-4.4l0-0.1c2.1-5.1,0-9.1-5.3-11.3l-6.1-2.5l-6.4,15.8L508.5,52.2z"/>
</g>
<g class="st3">
	<path class="st1" d="M545.7,42.6l6.6,3.5l-18.1,34l17.2,9.2l-3.3,6.1l-23.8-12.7L545.7,42.6z"/>
</g>
<g class="st3">
	<path class="st1" d="M592.8,69.9l6,4.1l-12.2,47.1l-6.5-4.5l3-11l-14.6-10l-9.2,6.7l-6.3-4.3L592.8,69.9z M585,98.9l5-18.7
		l-15.7,11.4L585,98.9z"/>
</g>
<g class="st3">
	<path class="st1" d="M623.7,92.8l5.2,4.7l-5.3,35.9l20.2-22.6l5.5,4.9l-30.3,33.9l-4.7-4.2l5.5-37l-20.8,23.3l-5.5-4.9L623.7,92.8z
		"/>
</g>
<g class="st3">
</g>
<g class="st3">
	<path class="st1" d="M219.5,692.2l14.1,6.6c4.3,2,7.4,4.9,8.5,8.1c0.9,2.6,0.8,5.2-0.4,7.9l-0.1,0.2c-2.3,4.9-6.3,6.1-10,6.2
		c3.6,3.6,5.6,7.6,3.1,12.9l-0.1,0.2c-3.2,7-10.7,8.2-19.1,4.2l-14.5-6.8L219.5,692.2z M223.5,721.3l-8-3.7l-5.3,11.3l8.3,3.8
		c4.5,2.1,8.3,1.4,10-2.2l0.1-0.1C230.1,727,228.5,723.6,223.5,721.3z M234.7,712.8c1.6-3.3,0-6.4-4.2-8.4l-7.2-3.4l-5.1,11l6.8,3.2
		c4.3,2,8,1.4,9.7-2.3L234.7,712.8z"/>
</g>
<g class="st3">
	<path class="st1" d="M257,736.1l-6.2-29.5l7.9,2.5l4,21.1l15.4-15l7.7,2.4l-21.8,20.6l-5.2,16.7l-6.9-2.2L257,736.1z"/>
</g>
<g class="st3">
</g>
<g class="st3">
	<path class="st1" d="M323.2,723.8l6.9,0.8l11,45.4l-7.5-0.8l-2.4-10.6l-16.9-1.9l-4.7,9.8l-7.2-0.8L323.2,723.8z M329.7,751.8
		l-4.2-18.1l-8.1,16.7L329.7,751.8z"/>
</g>
<g class="st3">
	<path class="st1" d="M352.1,753.7l-0.4-27l7.2-0.1l0.4,26.9c0.1,7,3.6,10.7,9.2,10.6c5.5-0.1,8.9-3.7,8.8-10.6l-0.4-27.2l7.2-0.1
		l0.4,26.7c0.2,11.7-6.1,17.7-16,17.8C358.8,771,352.3,765.2,352.1,753.7z"/>
</g>
<g class="st3">
	<path class="st1" d="M394.6,725.7l13.2-1.7c12.4-1.6,21.6,6,23.3,18.7l0.1,0.5c1.6,12.7-5.4,22.5-17.8,24.1l-13.2,1.7L394.6,725.7z
		 M402.6,731.3l3.9,30.3l6-0.8c7.9-1,12.4-7.3,11.2-16.6l0-0.4c-1.2-9.3-7.2-14.3-15.1-13.3L402.6,731.3z"/>
</g>
<g class="st3">
	<path class="st1" d="M437.3,719.4l15.3-4c4.8-1.3,9.1-0.8,12.3,1c2.8,1.6,4.9,4.5,5.9,8.4l0.1,0.2c1.7,6.5-0.9,11.5-5.5,14.7
		l14.2,13.7l-8.1,2.1L458.6,743c-0.1,0.1-0.3,0.1-0.4,0.2l-6.8,1.8l3.9,14.9l-7,1.8L437.3,719.4z M457.3,736.7
		c5.4-1.4,7.7-5.1,6.5-9.5l0-0.1c-1.2-4.8-5-6.4-10.2-5.1l-7.7,2l3.8,14.7L457.3,736.7z"/>
</g>
<g class="st3">
	<path class="st1" d="M476,708.5l25.6-10.1l2.4,6.1l-18.9,7.5l4.4,11l16.8-6.6l2.4,6.1l-16.8,6.6l4.5,11.3l19.2-7.6l2.4,6.1
		l-25.9,10.2L476,708.5z"/>
</g>
<g class="st3">
	<path class="st1" d="M532,712.4l-25.5-16l7.3-4l17.9,11.8l-0.1-21.5l7.1-3.8l-0.4,30l8.3,15.3l-6.4,3.5L532,712.4z"/>
</g>
<g>
	<g>
		<g>
			<g>
				<defs>
					<rect id="SVGID_5_" x="-227.8" y="-187.4" width="1190.6" height="1190.6"/>
				</defs>
				<clipPath id="SVGID_6_">
					<use xlink:href="#SVGID_5_"  style="overflow:visible;"/>
				</clipPath>
				<g class="st4">
					<path class="st1" d="M120.6,135c0,3.6-2.9,6.4-6.4,6.4s-6.4-2.9-6.4-6.4c0-3.6,2.9-6.4,6.4-6.4S120.6,131.4,120.6,135"/>
				</g>
			</g>
		</g>
	</g>
	<g>
		<g>
			<g>
				<defs>
					<rect id="SVGID_7_" x="-227.8" y="-187.4" width="1190.6" height="1190.6"/>
				</defs>
				<clipPath id="SVGID_8_">
					<use xlink:href="#SVGID_7_"  style="overflow:visible;"/>
				</clipPath>
				<g class="st5">
					<path class="st1" d="M658.3,160.2c0,3.6-2.9,6.4-6.4,6.4s-6.4-2.9-6.4-6.4c0-3.6,2.9-6.4,6.4-6.4S658.3,156.7,658.3,160.2"/>
				</g>
			</g>
		</g>
	</g>
	<g>
		<g>
			<g>
				<defs>
					<rect id="SVGID_9_" x="-227.8" y="-187.4" width="1190.6" height="1190.6"/>
				</defs>
				<clipPath id="SVGID_10_">
					<use xlink:href="#SVGID_9_"  style="overflow:visible;"/>
				</clipPath>
				<g class="st6">
					<path class="st1" d="M569.7,697.7c-1.7,0-3.3-0.8-4.3-2.3c-1.6-2.4-0.9-5.6,1.5-7.2c100.8-66.7,161-178.6,161-299.3
						c0-69.5-19.9-137-57.7-195.1c-1.6-2.4-0.9-5.6,1.5-7.2c2.4-1.6,5.6-0.9,7.2,1.5c38.8,59.8,59.3,129.2,59.3,200.7
						c0,124.2-61.9,239.3-165.6,307.9C571.7,697.4,570.7,697.7,569.7,697.7z"/>
				</g>
			</g>
		</g>
	</g>
	<g>
		<g>
			<g>
				<defs>
					<rect id="SVGID_11_" x="-227.8" y="-187.4" width="1190.6" height="1190.6"/>
				</defs>
				<clipPath id="SVGID_12_">
					<use xlink:href="#SVGID_11_"  style="overflow:visible;"/>
				</clipPath>
				<g class="st7">
					<path class="st1" d="M179.3,705.4c-0.9,0-1.9-0.2-2.7-0.8c-53-32.5-97.4-78.3-128.1-132.4C16.7,516.6,0.1,453,0.3,388.5
						c0.1-41.5,7.1-82.3,20.8-121.1c13.2-37.5,32.3-72.5,56.8-104c1.8-2.3,5-2.7,7.3-0.9c2.3,1.8,2.7,5,0.9,7.3
						c-49,63-75.1,138.7-75.4,218.7C10.5,451.2,26.6,513,57.5,567.1c29.9,52.5,73,97,124.6,128.6c2.4,1.5,3.2,4.7,1.7,7.1
						C182.7,704.5,181,705.4,179.3,705.4z"/>
				</g>
			</g>
		</g>
	</g>
</g>
</svg>
